<svg width="39" height="58" viewBox="0 0 39 58" fill="none" xmlns="http://www.w3.org/2000/svg">
<path d="M9.94142 57.5498C15.1854 57.5498 19.4414 53.2938 19.4414 48.0498V38.5498H9.94142C4.69741 38.5498 0.441406 42.8058 0.441406 48.0498C0.441406 53.2938 4.69741 57.5498 9.94142 57.5498Z" fill="#0ACF83"/>
<path d="M0.441406 29.0498C0.441406 23.8058 4.69741 19.5498 9.94142 19.5498H19.4414V38.5498H9.94142C4.69741 38.5498 0.441406 34.2938 0.441406 29.0498Z" fill="#A259FF"/>
<path d="M0.441406 10.0498C0.441406 4.80581 4.69741 0.549805 9.94142 0.549805H19.4414V19.5498H9.94142C4.69741 19.5498 0.441406 15.2938 0.441406 10.0498Z" fill="#F24E1E"/>
<path d="M19.4414 0.549805H28.9414C34.1854 0.549805 38.4414 4.80581 38.4414 10.0498C38.4414 15.2938 34.1854 19.5498 28.9414 19.5498H19.4414V0.549805Z" fill="#FF7262"/>
<path d="M38.4414 29.0498C38.4414 34.2938 34.1854 38.5498 28.9414 38.5498C23.6974 38.5498 19.4414 34.2938 19.4414 29.0498C19.4414 23.8058 23.6974 19.5498 28.9414 19.5498C34.1854 19.5498 38.4414 23.8058 38.4414 29.0498Z" fill="#1ABCFE"/>
</svg>
