<svg width="52" height="52" viewBox="0 0 52 52" fill="none" xmlns="http://www.w3.org/2000/svg">
<g clip-path="url(#clip0_5504_24753)">
<path fill-rule="evenodd" clip-rule="evenodd" d="M43.876 15C47.742 15 50.876 11.866 50.876 8C50.876 4.13401 47.742 1 43.876 1C40.01 1 36.876 4.13401 36.876 8C36.876 11.866 40.01 15 43.876 15Z" fill="#8055FA"/>
<path fill-rule="evenodd" clip-rule="evenodd" d="M43.8752 33.1025C47.7413 33.1025 50.8754 29.9685 50.8754 26.1025C50.8754 22.2365 47.7413 19.1025 43.8752 19.1025C40.0091 19.1025 36.875 22.2365 36.875 26.1025C36.875 29.9685 40.0091 33.1025 43.8752 33.1025Z" fill="#7550FB"/>
<path fill-rule="evenodd" clip-rule="evenodd" d="M43.875 51.876C47.741 51.876 50.875 48.742 50.875 44.876C50.875 41.01 47.741 37.876 43.875 37.876C40.009 37.876 36.875 41.01 36.875 44.876C36.875 48.742 40.009 51.876 43.875 51.876Z" fill="#6A4AFC"/>
<path fill-rule="evenodd" clip-rule="evenodd" d="M25.1035 33.1025C28.9695 33.1025 32.1035 29.9685 32.1035 26.1025C32.1035 22.2365 28.9695 19.1025 25.1035 19.1025C21.2375 19.1025 18.1035 22.2365 18.1035 26.1025C18.1035 29.9685 21.2375 33.1025 25.1035 33.1025Z" fill="#6045FD"/>
<path fill-rule="evenodd" clip-rule="evenodd" d="M25.1023 51.876C28.9682 51.876 32.1021 48.742 32.1021 44.876C32.1021 41.01 28.9682 37.876 25.1023 37.876C21.2364 37.876 18.1025 41.01 18.1025 44.876C18.1025 48.742 21.2364 51.876 25.1023 51.876Z" fill="#553FFE"/>
<path fill-rule="evenodd" clip-rule="evenodd" d="M7 51.876C10.866 51.876 14 48.742 14 44.876C14 41.01 10.866 37.876 7 37.876C3.13401 37.876 0 41.01 0 44.876C0 48.742 3.13401 51.876 7 51.876Z" fill="#4A3AFF"/>
</g>
<defs>
<clipPath id="clip0_5504_24753">
<rect width="52" height="52" fill="white"/>
</clipPath>
</defs>
</svg>
