<svg width="287" height="41" viewBox="0 0 287 41" fill="none" xmlns="http://www.w3.org/2000/svg">
<path fill-rule="evenodd" clip-rule="evenodd" d="M20.9492 40.8086C31.9949 40.8086 40.9492 31.8543 40.9492 20.8086C40.9492 9.7629 31.9949 0.808594 20.9492 0.808594C9.90352 0.808594 0.949219 9.7629 0.949219 20.8086C0.949219 31.8543 9.90352 40.8086 20.9492 40.8086ZM8.11399 21.8699C7.25098 21.6914 7.27981 20.33 8.14931 20.1864C16.626 18.7868 19.0633 16.6145 20.5327 8.60275C20.695 7.71728 22.1765 7.71746 22.3388 8.60295C23.7492 16.2995 26.0564 18.6048 33.7539 20.0165C34.6394 20.1789 34.6392 21.6604 33.7537 21.8226C26.0572 23.2331 23.7519 25.5403 22.3402 33.2378C22.1778 34.1232 20.6054 34.1368 20.4054 33.2591C18.6376 25.5021 15.4476 23.3867 8.11399 21.8699Z" fill="#171519"/>
<path d="M53.016 32V9.6H63.544C65.0587 9.6 66.3813 9.856 67.512 10.368C68.6427 10.88 69.528 11.6053 70.168 12.544C70.808 13.4613 71.128 14.528 71.128 15.744C71.128 16.7253 70.872 17.632 70.36 18.464C69.8693 19.2747 69.1973 19.936 68.344 20.448C69.432 20.96 70.296 21.6533 70.936 22.528C71.576 23.4027 71.896 24.3947 71.896 25.504C71.896 26.784 71.5653 27.9147 70.904 28.896C70.264 29.8773 69.3467 30.6453 68.152 31.2C66.9787 31.7333 65.6133 32 64.056 32H53.016ZM57.656 18.752H63.256C64.2587 18.752 65.048 18.5173 65.624 18.048C66.2213 17.5573 66.52 16.9067 66.52 16.096C66.52 15.2853 66.2213 14.6453 65.624 14.176C65.048 13.6853 64.2587 13.44 63.256 13.44H57.656V18.752ZM57.656 28.16H63.704C64.7707 28.16 65.624 27.904 66.264 27.392C66.904 26.8587 67.224 26.1547 67.224 25.28C67.224 24.384 66.904 23.68 66.264 23.168C65.624 22.6347 64.7707 22.368 63.704 22.368H57.656V28.16ZM74.853 32V15.328H79.237V17.184C79.7703 16.4587 80.4103 15.904 81.157 15.52C81.9037 15.136 82.7463 14.944 83.685 14.944C84.4957 14.9653 85.1037 15.0933 85.509 15.328V19.168C85.189 19.0187 84.837 18.912 84.453 18.848C84.069 18.7627 83.6743 18.72 83.269 18.72C82.4157 18.72 81.637 18.9333 80.933 19.36C80.229 19.7867 79.6637 20.3947 79.237 21.184V32H74.853ZM92.7588 32.288C91.5641 32.288 90.5081 32.0747 89.5908 31.648C88.6734 31.2 87.9588 30.592 87.4468 29.824C86.9348 29.056 86.6788 28.1707 86.6788 27.168C86.6788 25.568 87.2761 24.3307 88.4708 23.456C89.6868 22.56 91.3508 22.112 93.4628 22.112C94.9134 22.112 96.2788 22.336 97.5588 22.784V21.568C97.5588 20.608 97.2601 19.8827 96.6628 19.392C96.0654 18.9013 95.1908 18.656 94.0388 18.656C93.3348 18.656 92.5774 18.7733 91.7668 19.008C90.9561 19.2213 90.0174 19.5627 88.9508 20.032L87.3508 16.8C88.6734 16.2027 89.9321 15.7547 91.1268 15.456C92.3428 15.1573 93.5588 15.008 94.7748 15.008C97.0148 15.008 98.7534 15.552 99.9908 16.64C101.249 17.7067 101.879 19.2213 101.879 21.184V32H97.5588V30.816C96.8761 31.328 96.1401 31.7013 95.3508 31.936C94.5614 32.1707 93.6974 32.288 92.7588 32.288ZM90.8388 27.072C90.8388 27.712 91.1161 28.224 91.6708 28.608C92.2254 28.9707 92.9614 29.152 93.8788 29.152C94.6041 29.152 95.2761 29.0667 95.8948 28.896C96.5134 28.704 97.0681 28.4267 97.5588 28.064V25.632C97.0254 25.4187 96.4708 25.2587 95.8948 25.152C95.3188 25.0453 94.7001 24.992 94.0388 24.992C93.0361 24.992 92.2468 25.184 91.6708 25.568C91.1161 25.9307 90.8388 26.432 90.8388 27.072ZM105.197 32V15.328H109.581V16.704C110.839 15.5733 112.397 15.008 114.253 15.008C115.554 15.008 116.695 15.296 117.677 15.872C118.679 16.4267 119.458 17.2053 120.013 18.208C120.567 19.1893 120.845 20.3413 120.845 21.664V32H116.461V22.304C116.461 21.216 116.151 20.3627 115.533 19.744C114.914 19.104 114.071 18.784 113.005 18.784C112.258 18.784 111.597 18.9333 111.021 19.232C110.445 19.5093 109.965 19.9147 109.581 20.448V32H105.197ZM131.878 32.224C130.299 32.224 128.87 31.84 127.59 31.072C126.31 30.304 125.286 29.28 124.518 28C123.771 26.6987 123.398 25.248 123.398 23.648C123.398 22.048 123.771 20.608 124.518 19.328C125.286 18.0267 126.32 17.0027 127.622 16.256C128.923 15.488 130.384 15.104 132.006 15.104C132.838 15.104 133.638 15.2213 134.406 15.456C135.174 15.6693 135.888 15.9893 136.55 16.416V9.6L140.934 8.864V32H136.614V30.624C135.248 31.6907 133.67 32.224 131.878 32.224ZM132.582 28.48C133.392 28.48 134.128 28.352 134.79 28.096C135.472 27.8187 136.059 27.4133 136.55 26.88V20.384C136.059 19.8933 135.472 19.5093 134.79 19.232C134.107 18.9547 133.371 18.816 132.582 18.816C131.664 18.816 130.832 19.0293 130.086 19.456C129.36 19.8613 128.784 20.4373 128.358 21.184C127.931 21.9093 127.718 22.7307 127.718 23.648C127.718 24.5653 127.931 25.3867 128.358 26.112C128.784 26.8373 129.36 27.4133 130.086 27.84C130.832 28.2667 131.664 28.48 132.582 28.48ZM144.353 32V15.328H148.737V32H144.353ZM146.529 13.344C145.846 13.344 145.26 13.0987 144.769 12.608C144.278 12.1173 144.033 11.5307 144.033 10.848C144.033 10.144 144.278 9.55733 144.769 9.088C145.26 8.59733 145.846 8.352 146.529 8.352C147.233 8.352 147.82 8.59733 148.289 9.088C148.78 9.55733 149.025 10.144 149.025 10.848C149.025 11.5307 148.78 12.1173 148.289 12.608C147.82 13.0987 147.233 13.344 146.529 13.344ZM152.166 32V15.328H156.55V16.704C157.808 15.5733 159.366 15.008 161.222 15.008C162.523 15.008 163.664 15.296 164.646 15.872C165.648 16.4267 166.427 17.2053 166.982 18.208C167.536 19.1893 167.814 20.3413 167.814 21.664V32H163.43V22.304C163.43 21.216 163.12 20.3627 162.502 19.744C161.883 19.104 161.04 18.784 159.974 18.784C159.227 18.784 158.566 18.9333 157.99 19.232C157.414 19.5093 156.934 19.9147 156.55 20.448V32H152.166ZM179.518 38.848C178.238 38.848 177.001 38.7093 175.806 38.432C174.612 38.176 173.534 37.8027 172.574 37.312L174.11 33.92C175.028 34.368 175.924 34.6987 176.798 34.912C177.673 35.1253 178.548 35.232 179.422 35.232C180.724 35.232 181.705 34.9547 182.366 34.4C183.049 33.8453 183.39 33.0133 183.39 31.904V30.592C182.025 31.5947 180.5 32.096 178.814 32.096C177.236 32.096 175.806 31.7227 174.526 30.976C173.268 30.208 172.254 29.1733 171.486 27.872C170.74 26.5707 170.366 25.1307 170.366 23.552C170.366 21.9733 170.74 20.544 171.486 19.264C172.254 17.984 173.289 16.9707 174.59 16.224C175.892 15.456 177.342 15.072 178.942 15.072C179.753 15.072 180.542 15.1893 181.31 15.424C182.078 15.6587 182.793 15.9893 183.454 16.416V15.328H187.774V31.968C187.774 34.1653 187.06 35.8613 185.63 37.056C184.222 38.2507 182.185 38.848 179.518 38.848ZM179.486 28.384C180.297 28.384 181.033 28.256 181.694 28C182.356 27.7227 182.921 27.3387 183.39 26.848V20.32C182.921 19.8507 182.345 19.488 181.662 19.232C181.001 18.9547 180.286 18.816 179.518 18.816C178.601 18.816 177.78 19.0293 177.054 19.456C176.329 19.8613 175.753 20.4267 175.326 21.152C174.9 21.856 174.686 22.656 174.686 23.552C174.686 24.4693 174.889 25.2907 175.294 26.016C175.721 26.7413 176.297 27.3173 177.022 27.744C177.769 28.1707 178.59 28.384 179.486 28.384ZM193.757 32V18.976H190.045V15.328H193.757V13.728C193.757 11.8507 194.301 10.4213 195.389 9.44C196.477 8.43733 198.045 7.936 200.093 7.936C200.541 7.936 200.999 7.95733 201.469 8C201.938 8.04267 202.343 8.11733 202.685 8.224V11.904C202.279 11.8187 201.927 11.7547 201.629 11.712C201.33 11.6693 200.999 11.648 200.637 11.648C199.805 11.648 199.175 11.8293 198.749 12.192C198.343 12.5333 198.141 13.0773 198.141 13.824V15.328H202.685V18.976H198.141V32H193.757ZM212.419 32.32C210.755 32.32 209.251 31.936 207.907 31.168C206.563 30.4 205.496 29.3653 204.707 28.064C203.917 26.7627 203.523 25.3013 203.523 23.68C203.523 22.0587 203.907 20.5973 204.674 19.296C205.464 17.9733 206.531 16.928 207.875 16.16C209.24 15.392 210.755 15.008 212.419 15.008C214.083 15.008 215.587 15.392 216.931 16.16C218.296 16.928 219.363 17.9733 220.131 19.296C220.92 20.5973 221.315 22.0587 221.315 23.68C221.315 25.3013 220.92 26.7627 220.131 28.064C219.363 29.3653 218.307 30.4 216.963 31.168C215.619 31.936 214.104 32.32 212.419 32.32ZM212.419 28.512C213.293 28.512 214.072 28.2987 214.755 27.872C215.459 27.4453 216.013 26.8693 216.419 26.144C216.845 25.3973 217.059 24.576 217.059 23.68C217.059 22.7627 216.845 21.9413 216.419 21.216C216.013 20.4907 215.459 19.9147 214.755 19.488C214.072 19.04 213.293 18.816 212.419 18.816C211.565 18.816 210.787 19.04 210.083 19.488C209.379 19.9147 208.824 20.4907 208.419 21.216C208.013 21.9413 207.811 22.7627 207.811 23.68C207.811 24.576 208.013 25.3973 208.419 26.144C208.824 26.8693 209.379 27.4453 210.083 27.872C210.787 28.2987 211.565 28.512 212.419 28.512ZM224.009 32V9.6L228.393 8.864V32H224.009ZM231.822 32V15.328H236.206V32H231.822ZM233.998 13.344C233.315 13.344 232.728 13.0987 232.238 12.608C231.747 12.1173 231.502 11.5307 231.502 10.848C231.502 10.144 231.747 9.55733 232.238 9.088C232.728 8.59733 233.315 8.352 233.998 8.352C234.702 8.352 235.288 8.59733 235.758 9.088C236.248 9.55733 236.494 10.144 236.494 10.848C236.494 11.5307 236.248 12.1173 235.758 12.608C235.288 13.0987 234.702 13.344 233.998 13.344ZM247.762 32.32C246.098 32.32 244.594 31.936 243.25 31.168C241.906 30.4 240.84 29.3653 240.05 28.064C239.261 26.7627 238.866 25.3013 238.866 23.68C238.866 22.0587 239.25 20.5973 240.018 19.296C240.808 17.9733 241.874 16.928 243.218 16.16C244.584 15.392 246.098 15.008 247.762 15.008C249.426 15.008 250.93 15.392 252.274 16.16C253.64 16.928 254.706 17.9733 255.474 19.296C256.264 20.5973 256.658 22.0587 256.658 23.68C256.658 25.3013 256.264 26.7627 255.474 28.064C254.706 29.3653 253.65 30.4 252.306 31.168C250.962 31.936 249.448 32.32 247.762 32.32ZM247.762 28.512C248.637 28.512 249.416 28.2987 250.098 27.872C250.802 27.4453 251.357 26.8693 251.762 26.144C252.189 25.3973 252.402 24.576 252.402 23.68C252.402 22.7627 252.189 21.9413 251.762 21.216C251.357 20.4907 250.802 19.9147 250.098 19.488C249.416 19.04 248.637 18.816 247.762 18.816C246.909 18.816 246.13 19.04 245.426 19.488C244.722 19.9147 244.168 20.4907 243.762 21.216C243.357 21.9413 243.154 22.7627 243.154 23.68C243.154 24.576 243.357 25.3973 243.762 26.144C244.168 26.8693 244.722 27.4453 245.426 27.872C246.13 28.2987 246.909 28.512 247.762 28.512ZM263.966 32L272.51 20.416L264.415 9.6H269.951L275.263 16.96L280.543 9.6H285.887L277.919 20.416L286.559 32H281.023L275.167 23.872L269.311 32H263.966Z" fill="#171519"/>
</svg>
